PathFileType	4	(X/Y/Z)	C:\Users\italobelli\Desktop\GitHub\PTbot_officialCBL\Personal_Results\ABD03_noisy2.trc
DataRate	CameraRate	NumFrames	NumMarkers	Units	OrigDataRate	OrigDataStartFrame	OrigNumFrames
106.533333	106.533333	34	9	m	106.533333	601	800
Frame#	Time		gu		centelbow		EpL		centpxt8		centijc7		ij		ts		aa		ai
			X1	Y1	Z1	X2	Y2	Z2	X3	Y3	Z3	X4	Y4	Z4	X5	Y5	Z5	X6	Y6	Z6	X7	Y7	Z7	X8	Y8	Z8	X9	Y9	Z9

601	5.632	-0.11756	0.032897	0.152	-0.14075	-0.12246	0.34709	-0.1627	-0.10158	0.35567	-0.046816	-0.15316	-0.008669	-0.046816	0.031938	-0.008669	0	0	0	-0.11943	0.018712	0.022554	-0.15216	0.050198	0.13216	-0.10907	-0.086498	0.061545
602	5.6414	-0.11748	0.032172	0.15256	-0.14077	-0.12585	0.3455	-0.1625	-0.10498	0.35448	-0.046816	-0.15316	-0.008669	-0.046816	0.031938	-0.008669	0	0	0	-0.11964	0.018922	0.022855	-0.15208	0.049782	0.13268	-0.10958	-0.086517	0.061122
603	5.6508	-0.1174	0.031437	0.15311	-0.14079	-0.12922	0.34387	-0.16231	-0.10836	0.35327	-0.046816	-0.15316	-0.008669	-0.046816	0.031938	-0.008669	0	0	0	-0.11987	0.019131	0.02316	-0.152	0.04936	0.13322	-0.11011	-0.086537	0.060699
604	5.6602	-0.11732	0.030693	0.15366	-0.14082	-0.13259	0.34221	-0.16212	-0.11173	0.35202	-0.046816	-0.15316	-0.008669	-0.046816	0.031938	-0.008669	0	0	0	-0.1201	0.019339	0.023471	-0.15192	0.048934	0.13376	-0.11065	-0.086556	0.060277
605	5.6696	-0.11724	0.029942	0.15421	-0.14086	-0.13593	0.34052	-0.16193	-0.11509	0.35075	-0.046816	-0.15316	-0.008669	-0.046816	0.031938	-0.008669	0	0	0	-0.12034	0.019545	0.023787	-0.15185	0.048504	0.13431	-0.1112	-0.086576	0.059856
606	5.679	-0.11716	0.029185	0.15475	-0.14091	-0.13926	0.33879	-0.16174	-0.11842	0.34945	-0.046816	-0.15316	-0.008669	-0.046816	0.031938	-0.008669	0	0	0	-0.12058	0.019751	0.024106	-0.15177	0.048071	0.13486	-0.11176	-0.086596	0.059436
607	5.6884	-0.11707	0.028422	0.1553	-0.14095	-0.14256	0.33703	-0.16155	-0.12174	0.34812	-0.046816	-0.15316	-0.008669	-0.046816	0.031938	-0.008669	0	0	0	-0.12082	0.019955	0.02443	-0.15169	0.047634	0.13541	-0.11233	-0.086616	0.059019
608	5.6977	-0.11698	0.027655	0.15584	-0.14101	-0.14583	0.33524	-0.16136	-0.12503	0.34677	-0.046816	-0.15316	-0.008669	-0.046816	0.031938	-0.008669	0	0	0	-0.12107	0.020158	0.024756	-0.15161	0.047196	0.13597	-0.11291	-0.086636	0.058603
609	5.7071	-0.11689	0.026885	0.15637	-0.14106	-0.14908	0.33343	-0.16117	-0.12829	0.3454	-0.046816	-0.15316	-0.008669	-0.046816	0.031938	-0.008669	0	0	0	-0.12133	0.020359	0.025085	-0.15154	0.046756	0.13653	-0.1135	-0.086656	0.05819
610	5.7165	-0.11679	0.026112	0.15691	-0.14112	-0.1523	0.33159	-0.16098	-0.13153	0.344	-0.046816	-0.15316	-0.008669	-0.046816	0.031938	-0.008669	0	0	0	-0.12158	0.020558	0.025417	-0.15146	0.046315	0.13709	-0.1141	-0.086676	0.05778
611	5.7259	-0.11669	0.025338	0.15743	-0.14118	-0.15548	0.32973	-0.16079	-0.13474	0.34259	-0.046816	-0.15316	-0.008669	-0.046816	0.031938	-0.008669	0	0	0	-0.12184	0.020756	0.02575	-0.15138	0.045874	0.13765	-0.1147	-0.086697	0.057374
612	5.7353	-0.11659	0.024564	0.15795	-0.14125	-0.15863	0.32785	-0.1606	-0.13791	0.34115	-0.046816	-0.15316	-0.008669	-0.046816	0.031938	-0.008669	0	0	0	-0.1221	0.020952	0.026085	-0.1513	0.045433	0.13822	-0.1153	-0.086717	0.056972
613	5.7447	-0.11649	0.02379	0.15846	-0.14131	-0.16173	0.32596	-0.16041	-0.14105	0.3397	-0.046816	-0.15316	-0.008669	-0.046816	0.031938	-0.008669	0	0	0	-0.12237	0.021146	0.026421	-0.15123	0.044993	0.13878	-0.11591	-0.086737	0.056575
614	5.7541	-0.11639	0.023019	0.15897	-0.14138	-0.1648	0.32404	-0.16022	-0.14415	0.33823	-0.046816	-0.15316	-0.008669	-0.046816	0.031938	-0.008669	0	0	0	-0.12263	0.021338	0.026757	-0.15115	0.044555	0.13934	-0.11653	-0.086756	0.056182
615	5.7635	-0.11628	0.02225	0.15947	-0.14144	-0.16781	0.32211	-0.16002	-0.14721	0.33675	-0.046816	-0.15316	-0.008669	-0.046816	0.031938	-0.008669	0	0	0	-0.12289	0.021528	0.027093	-0.15107	0.044119	0.1399	-0.11714	-0.086776	0.055794
616	5.7728	-0.11618	0.021484	0.15996	-0.1415	-0.17078	0.32017	-0.15983	-0.15022	0.33526	-0.046816	-0.15316	-0.008669	-0.046816	0.031938	-0.008669	0	0	0	-0.12316	0.021716	0.027428	-0.15099	0.043686	0.14045	-0.11775	-0.086796	0.055413
617	5.7822	-0.11607	0.020724	0.16044	-0.14157	-0.1737	0.31822	-0.15963	-0.1532	0.33375	-0.046816	-0.15316	-0.008669	-0.046816	0.031938	-0.008669	0	0	0	-0.12342	0.021902	0.027763	-0.15091	0.043256	0.141	-0.11836	-0.086815	0.055037
618	5.7916	-0.11596	0.019969	0.16091	-0.14163	-0.17657	0.31626	-0.15943	-0.15612	0.33223	-0.046816	-0.15316	-0.008669	-0.046816	0.031938	-0.008669	0	0	0	-0.12368	0.022085	0.028096	-0.15083	0.04283	0.14155	-0.11897	-0.086834	0.054669
619	5.801	-0.11585	0.019221	0.16137	-0.14169	-0.17938	0.3143	-0.15923	-0.15899	0.33071	-0.046816	-0.15316	-0.008669	-0.046816	0.031938	-0.008669	0	0	0	-0.12394	0.022266	0.028427	-0.15075	0.042409	0.1421	-0.11958	-0.086853	0.054307
620	5.8104	-0.11573	0.018481	0.16182	-0.14174	-0.18213	0.31233	-0.15903	-0.16182	0.32918	-0.046816	-0.15316	-0.008669	-0.046816	0.031938	-0.008669	0	0	0	-0.1242	0.022445	0.028756	-0.15066	0.041993	0.14263	-0.12018	-0.086871	0.053953
621	5.8198	-0.11562	0.01775	0.16226	-0.14179	-0.18482	0.31035	-0.15882	-0.16458	0.32764	-0.046816	-0.15316	-0.008669	-0.046816	0.031938	-0.008669	0	0	0	-0.12445	0.022621	0.029082	-0.15058	0.041583	0.14317	-0.12078	-0.086889	0.053607
622	5.8292	-0.1155	0.017029	0.16268	-0.14184	-0.18744	0.30838	-0.15861	-0.16729	0.3261	-0.046816	-0.15316	-0.008669	-0.046816	0.031938	-0.008669	0	0	0	-0.12471	0.022794	0.029405	-0.1505	0.04118	0.14369	-0.12137	-0.086907	0.053269
623	5.8385	-0.11538	0.016319	0.1631	-0.14188	-0.18999	0.30641	-0.1584	-0.16994	0.32456	-0.046816	-0.15316	-0.008669	-0.046816	0.031938	-0.008669	0	0	0	-0.12496	0.022965	0.029724	-0.15041	0.040784	0.14421	-0.12195	-0.086924	0.05294
624	5.8479	-0.11526	0.01562	0.16349	-0.14191	-0.19248	0.30445	-0.15819	-0.17253	0.32302	-0.046816	-0.15316	-0.008669	-0.046816	0.031938	-0.008669	0	0	0	-0.1252	0.023133	0.030038	-0.15032	0.040395	0.14472	-0.12253	-0.086941	0.052621
625	5.8573	-0.11514	0.014935	0.16388	-0.14194	-0.19489	0.30248	-0.15797	-0.17505	0.32147	-0.046816	-0.15316	-0.008669	-0.046816	0.031938	-0.008669	0	0	0	-0.12544	0.023298	0.030348	-0.15023	0.040015	0.14522	-0.12309	-0.086957	0.052311
626	5.8667	-0.11502	0.014264	0.16425	-0.14197	-0.19723	0.30053	-0.15775	-0.17751	0.31993	-0.046816	-0.15316	-0.008669	-0.046816	0.031938	-0.008669	0	0	0	-0.12567	0.02346	0.030653	-0.15014	0.039644	0.1457	-0.12364	-0.086973	0.052011
627	5.8761	-0.1149	0.013607	0.1646	-0.14198	-0.19948	0.29859	-0.15753	-0.17989	0.3184	-0.046816	-0.15316	-0.008669	-0.046816	0.031938	-0.008669	0	0	0	-0.1259	0.023619	0.030953	-0.15005	0.039283	0.14618	-0.12418	-0.086988	0.051722
628	5.8855	-0.11477	0.012967	0.16494	-0.14199	-0.20166	0.29666	-0.1573	-0.18221	0.31686	-0.046816	-0.15316	-0.008669	-0.046816	0.031938	-0.008669	0	0	0	-0.12612	0.023775	0.031246	-0.14995	0.038932	0.14665	-0.12471	-0.087003	0.051444
629	5.8949	-0.11465	0.012343	0.16526	-0.14198	-0.20375	0.29474	-0.15707	-0.18445	0.31534	-0.046816	-0.15316	-0.008669	-0.046816	0.031938	-0.008669	0	0	0	-0.12634	0.023928	0.031532	-0.14985	0.038591	0.14711	-0.12523	-0.087017	0.051178
630	5.9043	-0.11452	0.011738	0.16557	-0.14197	-0.20575	0.29284	-0.15683	-0.18661	0.31382	-0.046816	-0.15316	-0.008669	-0.046816	0.031938	-0.008669	0	0	0	-0.12654	0.024077	0.031812	-0.14975	0.038263	0.14755	-0.12573	-0.08703	0.050923
631	5.9136	-0.1144	0.011152	0.16585	-0.14195	-0.20766	0.29096	-0.15659	-0.1887	0.31231	-0.046816	-0.15316	-0.008669	-0.046816	0.031938	-0.008669	0	0	0	-0.12674	0.024223	0.032084	-0.14965	0.037946	0.14798	-0.12621	-0.087043	0.050681
632	5.923	-0.11427	0.010585	0.16612	-0.14192	-0.20948	0.2891	-0.15634	-0.1907	0.31081	-0.046816	-0.15316	-0.008669	-0.046816	0.031938	-0.008669	0	0	0	-0.12693	0.024365	0.032348	-0.14955	0.037642	0.1484	-0.12667	-0.087055	0.050451
633	5.9324	-0.11414	0.01004	0.16637	-0.14187	-0.21121	0.28726	-0.15609	-0.19262	0.30932	-0.046816	-0.15316	-0.008669	-0.046816	0.031938	-0.008669	0	0	0	-0.12712	0.024504	0.032603	-0.14944	0.037352	0.1488	-0.12712	-0.087066	0.050235
634	5.9418	-0.11401	0.0095171	0.1666	-0.14182	-0.21284	0.28544	-0.15584	-0.19445	0.30785	-0.046816	-0.15316	-0.008669	-0.046816	0.031938	-0.008669	0	0	0	-0.12729	0.02464	0.03285	-0.14934	0.037075	0.14919	-0.12754	-0.087077	0.050032
